<svg xmlns="http://www.w3.org/2000/svg" viewBox="0 0 1024 1024" role="img" aria-label="낌새">
  <defs>
    <linearGradient id="bg" x1="0" y1="0" x2="1024" y2="1024"><stop offset="0" stop-color="#FFF9EE"/><stop offset="1" stop-color="#CFF7EA"/></linearGradient>
    <linearGradient id="leaf" x1="250" y1="690" x2="500" y2="930"><stop offset="0" stop-color="#2EB694"/><stop offset="1" stop-color="#0F7668"/></linearGradient>
    <linearGradient id="arc" x1="390" y1="360" x2="690" y2="710"><stop offset="0" stop-color="#79CFA4"/><stop offset="1" stop-color="#49AE8A"/></linearGradient>
  </defs>
  <rect width="1024" height="1024" fill="url(#bg)"/>
  <g transform="translate(82 82) scale(.84)">
    <path d="M264 518C244 357 355 226 524 222c158-4 274 96 288 233 6 58 31 91 72 128 26 23 22 62-10 79-22 12-43 16-43 42v78c0 48-39 87-87 87H641v73H425c-36 0-65-29-65-65v-76c0-38-15-66-55-95-30-22-54-67-61-110Z" fill="#fff" stroke="#0F4553" stroke-width="46" stroke-linecap="round" stroke-linejoin="round"/>
    <path d="M420 468c18-63 72-106 136-110" fill="none" stroke="url(#arc)" stroke-width="38" stroke-linecap="round"/>
    <path d="M666 516c-2 70-42 126-104 149" fill="none" stroke="url(#arc)" stroke-width="38" stroke-linecap="round"/>
    <path d="M478 503c22-38 75-49 110-17 35-32 88-21 110 17 18 31 10 70-17 93l-93 81-93-81c-27-23-35-62-17-93Z" fill="#FF6E68"/>
    <path d="M303 659c77 0 143 37 178 96 31 52 32 112 6 165-33-61-84-103-153-122 30 33 50 71 57 114-74-27-129-82-154-153-12-35-16-69-13-100h79Z" fill="url(#leaf)"/>
    <path d="M291 697c58 39 101 88 130 148" fill="none" stroke="#fff" stroke-width="22" stroke-linecap="round"/>
    <path d="M803 340l32-58M855 390l61-34M867 454l63 8" fill="none" stroke="#FF6E68" stroke-width="30" stroke-linecap="round"/>
  </g>
</svg>